<?xml version="1.0" encoding="UTF-8"?><svg id="Layer_2" xmlns="http://www.w3.org/2000/svg" viewBox="0 0 2000 1218.1"><defs><style>.cls-1,.cls-2{stroke-width:0px;}.cls-2{fill:#fff;}</style></defs><rect class="cls-1" width="2005.59" height="1218.1"/><path class="cls-2" d="m847.87,596.43v-185.12h41.87v75.47h6.84l62.37-75.47h49.56l-73.19,88.58v2.56l77.47,93.99h-51.83l-64.37-77.75h-6.84v77.75h-41.87Z"/><path class="cls-2" d="m1022.2,411.31h138.7v34.75h-96.83v39.87h69.21v34.17h-69.21v41.58h96.83v34.75h-138.7v-185.12Z"/><path class="cls-2" d="m1292.31,596.43l-50.69-86.58c-9.69-16.8-18.51-34.46-25.64-51.55.57,18.52.85,36.17.85,46.43v91.71h-37.59v-185.12h52.4l51.27,89.71c11.1,19.37,20.5,38.73,28.19,56.11-.57-21.65-1.14-42.44-1.14-53.26v-92.56h37.59v185.12h-55.25Z"/><path class="cls-2" d="m1522.18,561.97c0,20.79-12.25,34.46-34.75,34.46h-86.87c-18.23,0-33.6-9.97-33.6-33.04v-31.05h41.01v29.05h73.19v-29.9l-94.84-27.34c-14.81-4.56-19.37-12.53-19.37-29.05v-35.03c0-20.51,11.67-28.76,30.75-28.76h92.28c25.63,0,32.18,13.39,32.18,37.02v23.93h-41.01v-26.2h-73.19v26.77l95.4,27.34c15.1,4.56,18.8,11.96,18.8,30.47v31.33Z"/><path class="cls-2" d="m963.09,684.84v-19.32h-74.16v112.24h74.45v-37.79h-42.34v-31.83h82.97v71.32c0,17.9-9.1,34.39-34.96,34.39h-84.68c-23.01,0-36.08-12.5-36.08-35.8v-115.08c0-25.58,12.79-33.81,32.68-33.81h90.64c23.58,0,32.4,11.08,32.4,35.23v20.46h-40.92Z"/><path class="cls-2" d="m1132.18,778.05h-69.05l-10.23,35.8h-42.62l55.69-184.7h63.94l55.13,184.7h-42.63l-10.22-35.8Zm-59.39-33.53h50.01l-23.02-80.99h-3.97l-23.02,80.99Z"/><path class="cls-2" d="m1196.98,813.85v-184.7h126.45c19.61,0,27.28,11.65,27.28,32.67v67.07c0,18.19-6.54,27.56-21.88,29.55l21.03,55.41h-41.49l-20.17-54.84h-49.73v54.84h-41.49Zm113.1-89.22v-58.54h-71.61v58.54h71.61Z"/><path class="cls-2" d="m1486.27,778.05h-69.05l-10.23,35.8h-42.62l55.69-184.7h63.94l55.13,184.7h-42.62l-10.23-35.8Zm-59.39-33.53h50.01l-23.02-80.99h-3.97l-23.02,80.99Z"/><path class="cls-2" d="m1660.76,684.84v-19.32h-74.16v112.24h74.45v-37.79h-42.34v-31.83h82.97v71.32c0,17.9-9.1,34.39-34.96,34.39h-84.68c-23.01,0-36.08-12.5-36.08-35.8v-115.08c0-25.58,12.79-33.81,32.68-33.81h90.64c23.58,0,32.4,11.08,32.4,35.23v20.46h-40.92Z"/><polygon class="cls-2" points="1721.57 629.15 1859.96 629.15 1859.96 663.81 1763.35 663.81 1763.35 703.6 1832.4 703.6 1832.4 737.69 1763.35 737.69 1763.35 779.18 1859.96 779.18 1859.96 813.85 1721.57 813.85 1721.57 629.15"/><path class="cls-2" d="m736.86,849.57c-93.84,165.19-356.56,56.49-362.13-138.96-15.25,62.94-64.36,216.89-64.36,216.89l-170.34-.25c26.59-109.73,170.28-664.19,170.28-664.19l170.3.25-41.3,165.56h1.15c73.35-97.42,207.58-160.76,351.76-165.53-.07.22-47.69,186.88-49.41,193.66-104.6,1.23-209.61,55.21-224.59,165.06-7.05,51.67,27.7,119.49,66.38,132.3,31.76,10.51,55.26-6.49,50.2-29.14-7.03-29.89-42.95-27.7-52.17-11.91-5.81-57.56,65.52-85.69,116.05-64.27,77.44,32.83,71.31,142.2,38.18,200.51Z"/></svg>