<?xml version="1.0" encoding="UTF-8"?><svg id="Layer_2" xmlns="http://www.w3.org/2000/svg" viewBox="0 0 2516.13 945.79"><defs><style>.cls-1{stroke-width:0px;}</style></defs><path class="cls-1" d="m602.95,546.68v-182.91h41.36v74.57h6.76l61.62-74.57h48.96l-72.32,87.52v2.53l76.54,92.86h-51.21l-63.6-76.82h-6.76v76.82h-41.36Z"/><path class="cls-1" d="m775.19,363.77h137.04v34.33h-95.67v39.4h68.38v33.76h-68.38v41.09h95.67v34.33h-137.04v-182.91Z"/><path class="cls-1" d="m1042.08,546.68l-50.09-85.55c-9.57-16.6-18.29-34.05-25.33-50.93.56,18.29.84,35.74.84,45.87v90.61h-37.14v-182.91h51.77l50.66,88.64c10.97,19.14,20.26,38.27,27.86,55.44-.56-21.39-1.12-41.93-1.12-52.62v-91.45h37.14v182.91h-54.59Z"/><path class="cls-1" d="m1269.2,512.63c0,20.54-12.1,34.05-34.33,34.05h-85.83c-18.01,0-33.2-9.85-33.2-32.64v-30.67h40.52v28.7h72.32v-29.55l-93.71-27.01c-14.63-4.5-19.13-12.38-19.13-28.7v-34.61c0-20.26,11.53-28.42,30.39-28.42h91.18c25.32,0,31.8,13.23,31.8,36.58v23.64h-40.52v-25.89h-72.32v26.45l94.26,27.01c14.92,4.5,18.58,11.82,18.58,30.11v30.95Z"/><path class="cls-1" d="m1487.23,418.79v-19.2h-73.7v111.55h73.99v-37.55h-42.08v-31.63h82.46v70.88c0,17.79-9.04,34.17-34.74,34.17h-84.16c-22.87,0-35.86-12.42-35.86-35.58v-114.38c0-25.42,12.71-33.61,32.48-33.61h90.08c23.44,0,32.2,11.02,32.2,35.01v20.34h-40.67Z"/><path class="cls-1" d="m1655.28,511.43h-68.63l-10.17,35.58h-42.36l55.35-183.56h63.54l54.79,183.56h-42.37l-10.16-35.58Zm-59.03-33.33h49.71l-22.88-80.49h-3.95l-22.88,80.49Z"/><path class="cls-1" d="m1719.67,547.01v-183.56h125.67c19.49,0,27.12,11.57,27.12,32.47v66.65c0,18.07-6.5,27.39-21.74,29.37l20.9,55.07h-41.23l-20.05-54.5h-49.43v54.5h-41.23Zm112.4-88.68v-58.18h-71.17v58.18h71.17Z"/><path class="cls-1" d="m2007.19,511.43h-68.63l-10.17,35.58h-42.36l55.35-183.56h63.54l54.79,183.56h-42.36l-10.17-35.58Zm-59.03-33.33h49.71l-22.88-80.49h-3.95l-22.88,80.49Z"/><path class="cls-1" d="m2180.6,418.79v-19.2h-73.7v111.55h73.99v-37.55h-42.08v-31.63h82.46v70.88c0,17.79-9.04,34.17-34.74,34.17h-84.16c-22.87,0-35.86-12.42-35.86-35.58v-114.38c0-25.42,12.71-33.61,32.48-33.61h90.08c23.44,0,32.2,11.02,32.2,35.01v20.34h-40.67Z"/><polygon class="cls-1" points="2241.04 363.45 2378.57 363.45 2378.57 397.9 2282.56 397.9 2282.56 437.44 2351.18 437.44 2351.18 471.32 2282.56 471.32 2282.56 512.55 2378.57 512.55 2378.57 547.01 2241.04 547.01 2241.04 363.45"/><path class="cls-1" d="m511.2,597.05c-59.08,104.01-224.51,35.57-228.02-87.5-9.6,39.63-40.52,136.57-40.52,136.57l-107.26-.16c16.74-69.09,107.22-418.21,107.22-418.21l107.23.16-26.01,104.25h.72c46.18-61.34,130.71-101.22,221.49-104.23-.05.14-30.03,117.67-31.11,121.94-65.86.77-131.99,34.76-141.42,103.93-4.44,32.54,17.44,75.24,41.8,83.31,20,6.62,34.8-4.09,31.61-18.35-4.43-18.82-27.04-17.44-32.85-7.5-3.66-36.24,41.26-53.96,73.07-40.47,48.76,20.67,44.9,89.54,24.04,126.26Z"/></svg>